<svg width="21" height="21" viewBox="0 0 21 21" fill="none" xmlns="http://www.w3.org/2000/svg">
<path d="M0.807617 19.8848H20.1924C20.274 19.8848 20.3525 19.9169 20.4102 19.9746C20.4678 20.0323 20.5 20.1108 20.5 20.1924C20.5 20.274 20.4678 20.3525 20.4102 20.4102C20.3525 20.4678 20.274 20.5 20.1924 20.5H0.807617C0.726038 20.5 0.647529 20.4678 0.589844 20.4102C0.532188 20.3525 0.5 20.274 0.5 20.1924C0.50002 20.1108 0.532158 20.0323 0.589844 19.9746C0.647529 19.9169 0.726038 19.8848 0.807617 19.8848Z" stroke="#1F1F22"/>
<path d="M2.42285 10.4424H5.65332C5.68516 10.4424 5.7109 10.4682 5.71094 10.5V20.1924C5.71094 20.2242 5.68518 20.25 5.65332 20.25H2.42285C2.39102 20.25 2.36523 20.2242 2.36523 20.1924V10.5C2.36527 10.4682 2.39105 10.4424 2.42285 10.4424Z" stroke="#1F1F22" stroke-width="1.5"/>
<path d="M8.88452 0.75H12.115C12.1468 0.75 12.1726 0.775789 12.1726 0.807617V20.1924C12.1726 20.2242 12.1468 20.25 12.115 20.25H8.88452C8.85272 20.25 8.82695 20.2242 8.8269 20.1924V0.807617L8.83179 0.785156C8.84058 0.764574 8.86073 0.75003 8.88452 0.75Z" stroke="#1F1F22" stroke-width="1.5"/>
<path d="M15.3462 5.59619H18.5767C18.6085 5.59619 18.6342 5.62198 18.6343 5.65381V20.1919C18.6343 20.2238 18.6085 20.2505 18.5767 20.2505H15.3462C15.3144 20.2504 15.2886 20.2237 15.2886 20.1919V5.65381C15.2886 5.62201 15.3144 5.59623 15.3462 5.59619Z" stroke="#1F1F22" stroke-width="1.5"/>
</svg>
