<svg width="13" height="13" viewBox="0 0 13 13" fill="none" xmlns="http://www.w3.org/2000/svg">
<path fill-rule="evenodd" clip-rule="evenodd" d="M0 12.5C0 12.3674 0.0526785 12.2402 0.146447 12.1464C0.240215 12.0527 0.367392 12 0.5 12H12.5C12.6326 12 12.7598 12.0527 12.8536 12.1464C12.9473 12.2402 13 12.3674 13 12.5C13 12.6326 12.9473 12.7598 12.8536 12.8536C12.7598 12.9473 12.6326 13 12.5 13H0.5C0.367392 13 0.240215 12.9473 0.146447 12.8536C0.0526785 12.7598 0 12.6326 0 12.5Z" fill="#006FFD"/>
<path d="M3.5 6H1.5C1.22386 6 1 6.22386 1 6.5V12.5C1 12.7761 1.22386 13 1.5 13H3.5C3.77614 13 4 12.7761 4 12.5V6.5C4 6.22386 3.77614 6 3.5 6Z" fill="#006FFD"/>
<path d="M7.5 0H5.5C5.22386 0 5 0.223858 5 0.5V12.5C5 12.7761 5.22386 13 5.5 13H7.5C7.77614 13 8 12.7761 8 12.5V0.5C8 0.223858 7.77614 0 7.5 0Z" fill="#006FFD"/>
<path d="M11.5 3H9.5C9.22386 3 9 3.22386 9 3.5V12.5C9 12.7761 9.22386 13 9.5 13H11.5C11.7761 13 12 12.7761 12 12.5V3.5C12 3.22386 11.7761 3 11.5 3Z" fill="#006FFD"/>
</svg>
